# xmcd
#
# Track frame offsets:
# 150
# 55100
# 79175
# 108150
# 137275
# 176925
# 223775
# 275425
# 312300
#
# Disc length: 4546 seconds
#
# Revision: 0
# Processed by: cddbd v1.4PL0 Copyright (c) Steve Scherf et al.
# Submitted via: Audion 2.6.0 (http://www.panic.com/audion/)
#
DISCID=7c11c009
DTITLE=Lee Morgan - Lee Morgan Jazzgalerie 2
DYEAR=1900
DGENRE=
TTITLE0=Bouncing with bud
TTITLE1=Terrible "T"
TTITLE2=Lester Left Town
TTITLE3=It's only a Papermoon
TTITLE4=Dat here
TTITLE5=this here
TTITLE6=thats right
TTITLE7=nakatini suite
TTITLE8=yama
EXTD=
EXTT0=
EXTT1=
EXTT2=
EXTT3=
EXTT4=
EXTT5=
EXTT6=
EXTT7=
EXTT8=
PLAYORDER=
